<svg width="877" height="675" viewBox="0 0 877 675" fill="none" xmlns="http://www.w3.org/2000/svg">
<path d="M319.735 499.913C184.787 499.913 75 390.126 75 255.178C75 120.231 184.787 10.4436 319.735 10.4436C358.945 10.4839 397.575 19.9243 432.384 37.9733C467.193 56.0223 497.168 82.1539 519.796 114.177L517.48 115.813C495.115 84.16 465.487 58.3304 431.081 40.4899C396.674 22.6494 358.492 13.318 319.735 13.2781C186.351 13.2781 77.8345 121.795 77.8345 255.178C77.8345 388.562 186.351 497.079 319.735 497.079C356.891 497.2 393.57 488.704 426.889 472.26C460.209 455.816 489.262 431.87 511.767 402.304L514.014 404.029C491.247 433.941 461.853 458.167 428.144 474.804C394.434 491.441 357.326 500.036 319.735 499.913Z" fill="#E6E6E6"/>
<path d="M420.912 214.195C418.229 214.195 415.606 213.399 413.375 211.909C411.144 210.418 409.405 208.299 408.379 205.82C407.352 203.342 407.083 200.614 407.607 197.982C408.13 195.351 409.422 192.934 411.319 191.036C413.217 189.139 415.634 187.847 418.265 187.324C420.897 186.8 423.625 187.069 426.103 188.096C428.582 189.122 430.701 190.861 432.192 193.092C433.682 195.323 434.478 197.946 434.478 200.629C434.478 204.227 433.049 207.677 430.505 210.221C427.96 212.766 424.51 214.195 420.912 214.195Z" fill="#B0B0B0"/>
<path d="M425.643 203.468L422.804 200.629L425.643 197.79C425.768 197.666 425.867 197.519 425.935 197.356C426.003 197.194 426.038 197.019 426.038 196.843C426.038 196.667 426.004 196.493 425.937 196.33C425.869 196.167 425.771 196.019 425.646 195.895C425.522 195.77 425.374 195.671 425.211 195.604C425.048 195.537 424.874 195.502 424.698 195.503C424.522 195.503 424.347 195.538 424.185 195.606C424.022 195.674 423.875 195.773 423.751 195.898L420.912 198.736L418.073 195.898C417.822 195.647 417.482 195.506 417.127 195.506C416.772 195.506 416.432 195.647 416.181 195.898C415.93 196.149 415.789 196.489 415.789 196.844C415.789 197.199 415.93 197.539 416.181 197.79L419.019 200.629L416.181 203.468C415.931 203.719 415.791 204.059 415.792 204.413C415.792 204.767 415.933 205.107 416.184 205.357C416.434 205.608 416.774 205.749 417.128 205.749C417.482 205.75 417.822 205.61 418.073 205.36L420.912 202.522L423.751 205.36C423.875 205.485 424.022 205.583 424.185 205.65C424.347 205.718 424.521 205.752 424.697 205.752C424.873 205.752 425.047 205.718 425.209 205.65C425.371 205.583 425.519 205.485 425.643 205.36C425.767 205.236 425.866 205.088 425.933 204.926C426 204.764 426.035 204.59 426.035 204.414C426.035 204.238 426 204.064 425.933 203.902C425.866 203.74 425.767 203.592 425.643 203.468Z" fill="white"/>
<path d="M353.445 53.9938C368.355 53.9938 380.441 41.9068 380.441 26.9969C380.441 12.0869 368.355 0 353.445 0C338.535 0 326.448 12.0869 326.448 26.9969C326.448 41.9068 338.535 53.9938 353.445 53.9938Z" fill="#B0B0B0"/>
<path d="M349.762 41.0476C349.295 41.0476 348.836 40.9391 348.419 40.7305C348.002 40.522 347.639 40.2192 347.359 39.8462L339.994 30.0258C339.758 29.7103 339.586 29.3513 339.488 28.9693C339.39 28.5873 339.368 28.1897 339.424 27.7993C339.48 27.4089 339.612 27.0334 339.813 26.694C340.014 26.3547 340.28 26.0583 340.595 25.8217C340.91 25.5851 341.27 25.4129 341.652 25.3151C342.034 25.2172 342.431 25.1955 342.821 25.2513C343.212 25.3071 343.587 25.4392 343.927 25.6402C344.266 25.8411 344.563 26.1069 344.799 26.4224L349.618 32.8466L361.993 14.2832C362.438 13.6263 363.124 13.1717 363.902 13.0188C364.68 12.8659 365.487 13.0269 366.147 13.4668C366.807 13.9067 367.266 14.5897 367.424 15.3668C367.582 16.1439 367.426 16.9521 366.991 17.6148L352.261 39.7103C351.994 40.1099 351.636 40.4398 351.215 40.6723C350.795 40.9048 350.325 41.0332 349.845 41.0466L349.762 41.0476Z" fill="white"/>
<path d="M386.501 75.7017H321.58C317.612 75.7017 314.395 78.9184 314.395 82.8864V85.4722C314.395 89.4402 317.612 92.6569 321.58 92.6569H386.501C390.469 92.6569 393.686 89.4402 393.686 85.4722V82.8864C393.686 78.9184 390.469 75.7017 386.501 75.7017Z" fill="#E6E6E6"/>
<path d="M426.77 109.612H281.311C277.343 109.612 274.127 112.829 274.127 116.797V119.383C274.127 123.351 277.343 126.568 281.311 126.568H426.77C430.738 126.568 433.954 123.351 433.954 119.383V116.797C433.954 112.829 430.738 109.612 426.77 109.612Z" fill="#E6E6E6"/>
<path d="M426.77 143.523H281.311C277.343 143.523 274.127 146.74 274.127 150.708V153.294C274.127 157.262 277.343 160.478 281.311 160.478H426.77C430.738 160.478 433.954 157.262 433.954 153.294V150.708C433.954 146.74 430.738 143.523 426.77 143.523Z" fill="#E6E6E6"/>
<path d="M338.295 505.082C335.612 505.082 332.99 504.286 330.759 502.796C328.528 501.305 326.789 499.186 325.762 496.708C324.735 494.229 324.467 491.501 324.99 488.87C325.514 486.238 326.806 483.821 328.703 481.924C330.6 480.026 333.017 478.734 335.649 478.211C338.28 477.687 341.008 477.956 343.487 478.983C345.966 480.01 348.084 481.748 349.575 483.979C351.066 486.21 351.861 488.833 351.861 491.516C351.861 495.114 350.432 498.565 347.888 501.109C345.344 503.653 341.893 505.082 338.295 505.082Z" fill="#B0B0B0"/>
<path d="M343.027 494.355L340.188 491.516L343.027 488.678C343.278 488.427 343.419 488.086 343.419 487.731C343.419 487.376 343.278 487.036 343.027 486.785C342.776 486.534 342.435 486.393 342.08 486.393C341.725 486.393 341.385 486.534 341.134 486.785L338.295 489.624L335.457 486.785C335.206 486.534 334.865 486.393 334.51 486.393C334.155 486.393 333.815 486.534 333.564 486.785C333.313 487.036 333.172 487.376 333.172 487.731C333.172 488.086 333.313 488.427 333.564 488.678L336.403 491.516L333.564 494.355C333.313 494.606 333.172 494.946 333.172 495.301C333.172 495.656 333.313 495.997 333.564 496.247C333.815 496.498 334.155 496.639 334.51 496.639C334.865 496.639 335.206 496.498 335.457 496.247L338.295 493.409L341.134 496.247C341.385 496.498 341.725 496.639 342.08 496.639C342.435 496.639 342.776 496.498 343.027 496.247C343.278 495.997 343.419 495.656 343.419 495.301C343.419 494.946 343.278 494.606 343.027 494.355Z" fill="white"/>
<path d="M270.828 344.881C285.738 344.881 297.825 332.794 297.825 317.884C297.825 302.974 285.738 290.887 270.828 290.887C255.918 290.887 243.831 302.974 243.831 317.884C243.831 332.794 255.918 344.881 270.828 344.881Z" fill="#B0B0B0"/>
<path d="M267.145 331.935C266.679 331.935 266.219 331.826 265.802 331.618C265.385 331.409 265.023 331.107 264.743 330.734L257.378 320.913C257.141 320.598 256.969 320.239 256.871 319.857C256.774 319.475 256.752 319.077 256.808 318.687C256.863 318.296 256.996 317.921 257.196 317.581C257.397 317.242 257.663 316.946 257.979 316.709C258.294 316.472 258.653 316.3 259.035 316.202C259.417 316.105 259.815 316.083 260.205 316.139C260.596 316.194 260.971 316.327 261.31 316.528C261.65 316.728 261.946 316.994 262.183 317.31L267.001 323.734L279.377 305.171C279.595 304.84 279.876 304.555 280.203 304.333C280.531 304.111 280.9 303.956 281.288 303.877C281.676 303.798 282.076 303.797 282.465 303.873C282.854 303.949 283.223 304.101 283.553 304.321C283.882 304.541 284.165 304.823 284.385 305.153C284.605 305.482 284.757 305.852 284.834 306.241C284.91 306.629 284.909 307.029 284.83 307.417C284.751 307.805 284.596 308.174 284.375 308.502L269.644 330.598C269.378 330.997 269.019 331.327 268.599 331.56C268.179 331.792 267.709 331.921 267.229 331.934L267.145 331.935Z" fill="white"/>
<path d="M303.884 366.589H238.964C234.996 366.589 231.779 369.806 231.779 373.774V376.36C231.779 380.328 234.996 383.544 238.964 383.544H303.884C307.852 383.544 311.069 380.328 311.069 376.36V373.774C311.069 369.806 307.852 366.589 303.884 366.589Z" fill="#E6E6E6"/>
<path d="M344.153 400.5H198.695C194.727 400.5 191.51 403.716 191.51 407.684V410.27C191.51 414.238 194.727 417.455 198.695 417.455H344.153C348.121 417.455 351.338 414.238 351.338 410.27V407.684C351.338 403.716 348.121 400.5 344.153 400.5Z" fill="#E6E6E6"/>
<path d="M344.153 434.41H198.695C194.727 434.41 191.51 437.627 191.51 441.595V444.18C191.51 448.148 194.727 451.365 198.695 451.365H344.153C348.121 451.365 351.338 448.148 351.338 444.18V441.595C351.338 437.627 348.121 434.41 344.153 434.41Z" fill="#E6E6E6"/>
<path d="M618.926 447.202C615.221 447.202 611.599 446.103 608.519 444.044C605.438 441.986 603.037 439.06 601.619 435.637C600.201 432.214 599.83 428.447 600.553 424.813C601.276 421.18 603.06 417.842 605.68 415.222C608.3 412.602 611.638 410.818 615.272 410.095C618.905 409.372 622.672 409.743 626.095 411.161C629.518 412.579 632.444 414.98 634.502 418.061C636.561 421.141 637.66 424.763 637.66 428.468C637.66 433.437 635.686 438.201 632.173 441.715C628.66 445.228 623.895 447.202 618.926 447.202Z" fill="#B0B0B0"/>
<path d="M625.46 432.389L621.54 428.469L625.46 424.548C625.806 424.202 626.001 423.732 626.001 423.242C626.001 422.752 625.806 422.282 625.46 421.935C625.113 421.588 624.643 421.394 624.153 421.394C623.663 421.394 623.193 421.588 622.846 421.935L618.926 425.855L615.006 421.935C614.659 421.588 614.189 421.394 613.699 421.394C613.209 421.394 612.739 421.588 612.393 421.935C612.046 422.282 611.851 422.752 611.851 423.242C611.851 423.732 612.046 424.202 612.393 424.548L616.313 428.469L612.393 432.389C612.046 432.735 611.851 433.205 611.851 433.695C611.851 434.185 612.046 434.655 612.393 435.002C612.739 435.349 613.209 435.543 613.699 435.543C614.189 435.543 614.659 435.349 615.006 435.002L618.926 431.082L622.846 435.002C623.193 435.349 623.663 435.543 624.153 435.543C624.643 435.543 625.113 435.349 625.459 435.002C625.806 434.655 626.001 434.185 626.001 433.695C626.001 433.205 625.806 432.735 625.46 432.389Z" fill="white"/>
<path d="M537.307 225.979C557.896 225.979 574.587 209.288 574.587 188.699C574.587 168.11 557.896 151.419 537.307 151.419C516.717 151.419 500.027 168.11 500.027 188.699C500.027 209.288 516.717 225.979 537.307 225.979Z" fill="#E1123A"/>
<path d="M532.221 208.101C531.577 208.101 530.942 207.952 530.366 207.664C529.791 207.376 529.29 206.958 528.904 206.442L518.733 192.881C518.406 192.446 518.169 191.95 518.033 191.422C517.898 190.895 517.868 190.346 517.946 189.807C518.023 189.268 518.205 188.749 518.482 188.281C518.76 187.812 519.127 187.403 519.563 187.076C519.998 186.749 520.494 186.511 521.022 186.376C521.549 186.241 522.098 186.211 522.637 186.288C523.176 186.365 523.695 186.548 524.163 186.825C524.632 187.103 525.041 187.47 525.368 187.905L532.022 196.777L549.112 171.142C549.414 170.689 549.802 170.3 550.255 169.996C550.707 169.693 551.215 169.482 551.749 169.375C552.283 169.268 552.833 169.268 553.368 169.373C553.902 169.479 554.41 169.689 554.863 169.991C555.317 170.293 555.706 170.682 556.009 171.134C556.312 171.587 556.523 172.095 556.63 172.629C556.736 173.163 556.737 173.713 556.631 174.247C556.525 174.782 556.315 175.29 556.013 175.743L535.672 206.255C535.304 206.807 534.809 207.262 534.229 207.583C533.648 207.904 532.999 208.082 532.336 208.1C532.298 208.101 532.259 208.101 532.221 208.101Z" fill="white"/>
<path d="M585.691 255.956H490.568C486.6 255.956 483.384 259.173 483.384 263.141V272.185C483.384 276.153 486.6 279.37 490.568 279.37H585.691C589.659 279.37 592.876 276.153 592.876 272.185V263.141C592.876 259.173 589.659 255.956 585.691 255.956Z" fill="white"/>
<path d="M641.298 302.783H434.961C430.993 302.783 427.776 306 427.776 309.968V319.012C427.776 322.98 430.993 326.197 434.961 326.197H641.298C645.266 326.197 648.483 322.98 648.483 319.012V309.968C648.483 306 645.266 302.783 641.298 302.783Z" fill="white"/>
<path d="M641.298 349.61H434.961C430.993 349.61 427.776 352.827 427.776 356.795V365.839C427.776 369.807 430.993 373.024 434.961 373.024H641.298C645.266 373.024 648.483 369.807 648.483 365.839V356.795C648.483 352.827 645.266 349.61 641.298 349.61Z" fill="white"/>
<path d="M713.721 657.091L695.643 657.089L687.042 587.356L713.726 587.358L713.721 657.091Z" fill="#FFB6B6"/>
<path d="M713.239 651.186L693.936 643.334L693.384 643.107L682.726 651.186C676.708 651.187 670.938 653.578 666.683 657.833C662.428 662.088 660.037 667.858 660.036 673.876V674.613H718.327V651.186H713.239Z" fill="#2F2E41"/>
<path d="M866.529 641.947L849.264 647.311L820.355 583.271L845.838 575.354L866.529 641.947Z" fill="#FFB6B6"/>
<path d="M864.316 636.452L843.552 634.682L842.957 634.63L835.177 645.507C829.431 647.294 824.63 651.29 821.829 656.616C819.029 661.942 818.458 668.162 820.243 673.909L820.462 674.613L876.127 657.313L869.174 634.942L864.316 636.452Z" fill="#2F2E41"/>
<path d="M794.193 299.871L801.546 320.783V332.087L800.522 344.518L811.902 385.978L820.83 477.403L865.758 612.738L831.309 622.659L743.354 401.534L715.574 625.195L684.07 624.355C684.07 624.355 678.681 611.321 680.098 604.235C681.515 597.149 681.515 605.652 681.515 597.149C681.515 588.645 675.371 592.339 679.86 585.531C684.349 578.724 683.791 572.765 684.07 568.658C684.349 564.552 681.515 398.733 681.515 393.064C681.515 387.395 680.533 388.637 681.024 383.056C681.515 377.474 687.744 379.769 686.047 370.118C684.349 360.467 683.791 362.154 684.07 354.933C684.349 347.712 688.255 305.372 688.255 305.372L794.193 299.871Z" fill="#2F2E41"/>
<path d="M676.287 306.674L739.442 245.767L756.947 196.203L731.127 184.976C717.865 197.68 703.529 237.25 703.529 237.25L660.069 292.541C659.73 292.657 659.392 292.78 659.059 292.928C657.101 293.791 655.4 295.144 654.118 296.857C652.837 298.57 652.019 300.585 651.743 302.707C651.468 304.828 651.744 306.985 652.546 308.968C653.348 310.952 654.648 312.695 656.32 314.029C657.992 315.363 659.98 316.244 662.092 316.585C664.204 316.926 666.369 316.717 668.376 315.978C670.384 315.238 672.166 313.993 673.552 312.364C674.938 310.734 675.88 308.774 676.287 306.674Z" fill="#FFB8B8"/>
<path d="M723.862 190.51L756.613 200.907L756.736 200.886C768.926 198.844 779.041 178.935 785.379 162.593C787.465 157.203 787.426 151.222 785.271 145.859C783.115 140.496 779.004 136.152 773.768 133.705C769.893 131.925 765.598 131.265 761.368 131.799C757.138 132.332 753.141 134.039 749.83 136.725L733.013 150.467L723.862 190.51Z" fill="#E1123A"/>
<path d="M799.758 326.735L799.949 326.481C810.167 312.929 796.191 279.368 794.079 274.501L803.58 271.687L801.924 253.596L801.126 245.53L808.513 238.514L808.538 238.335L813.619 202.18L820.266 178.25C822.772 169.204 822.825 159.653 820.42 150.58C818.015 141.506 813.238 133.236 806.581 126.618L792.992 113.126L776.711 87.6425L749.414 86.9377L739.598 104.375C730.469 106.238 722.284 111.244 716.467 118.522C710.65 125.8 707.571 134.887 707.765 144.202L708.69 190.623L698.895 248.139L698.62 258.587L689.007 268.732L690.784 278.988L683.593 281.852L680.074 296.426C678.73 298.107 669.856 309.324 669.775 312.451C669.763 312.921 670.098 313.383 670.829 313.906C676.573 318.015 708.677 326.92 723.126 321.567C738.517 315.869 798.836 326.57 799.444 326.679L799.758 326.735Z" fill="#E1123A"/>
<path d="M732.842 179.577L718.898 151.777C698.659 153.16 658.49 176.561 658.49 176.561L582.488 192.675C580.236 191.81 577.796 191.552 575.414 191.93C573.032 192.307 570.791 193.305 568.916 194.824C567.042 196.342 565.602 198.328 564.739 200.58C563.876 202.833 563.622 205.273 564.002 207.655C564.382 210.037 565.383 212.276 566.903 214.149C568.424 216.021 570.412 217.46 572.665 218.32C574.919 219.18 577.359 219.431 579.741 219.048C582.122 218.665 584.361 217.662 586.231 216.139L682.91 209.209L732.842 179.577Z" fill="#FFB8B8"/>
<path d="M727.218 184.141L763.635 157.078L770.049 133.962C771.292 129.419 771.239 124.619 769.897 120.105C768.555 115.591 765.978 111.541 762.455 108.415C757.652 104.21 751.431 101.985 745.05 102.191C738.668 102.396 732.604 105.018 728.081 109.524C714.377 123.203 698.747 142.286 702.105 155.518L702.138 155.652L727.218 184.141Z" fill="#E1123A"/>
<path d="M763.961 80.6193C781.845 80.6193 796.343 66.1212 796.343 48.2369C796.343 30.3526 781.845 15.8545 763.961 15.8545C746.077 15.8545 731.579 30.3526 731.579 48.2369C731.579 66.1212 746.077 80.6193 763.961 80.6193Z" fill="#FFB8B8"/>
<path d="M785.272 82.1026C779.855 79.5585 773.529 81.1046 767.55 81.3399C761.57 81.5752 754.325 79.321 753.056 73.4729C752.118 69.1488 754.938 64.4094 753.161 60.3571C751.224 55.938 745.408 55.3091 740.744 54.0717C734.898 52.3825 729.742 48.8742 726.025 44.0559C722.309 39.2377 720.224 33.3603 720.074 27.2769C719.75 29.6914 723.882 30.4844 725.239 28.4612C726.596 26.4381 725.661 23.6377 724.165 21.7153C722.669 19.7928 720.649 18.2575 719.521 16.0984C718.392 13.9394 718.612 10.7329 720.815 9.69387C721.944 11.9733 723.544 13.9875 725.508 15.6034C727.473 17.2194 729.758 18.4005 732.212 19.0688C731.21 16.0243 732.627 12.6014 734.908 10.3496C737.331 8.23971 740.123 6.59553 743.143 5.49973C750.608 2.26396 759.324 -0.955996 766.552 2.77733C768.418 3.7595 770.038 5.15061 771.291 6.84674C772.544 8.54287 773.398 10.5002 773.788 12.5725C787.16 13.7032 800.89 28.1877 800.129 41.5853C799.31 56.0081 798.712 57.175 786.705 81.4455" fill="#2F2E41"/>
<path d="M2 0V479.5" stroke="#E1123A" stroke-width="4"/>
</svg>
